<?xml version="1.0" encoding="utf-8"?>
<!-- Generator: Adobe Illustrator 24.1.1, SVG Export Plug-In . SVG Version: 6.00 Build 0)  -->
<svg version="1.1" id="Layer_1" xmlns="http://www.w3.org/2000/svg" xmlns:xlink="http://www.w3.org/1999/xlink" x="0px" y="0px"
	 viewBox="0 0 127.5 53" style="enable-background:new 0 0 127.5 53;" xml:space="preserve">
<style type="text/css">
	.st0{fill:#00844A;}
</style>
<g>
	<g>
		<path class="st0" d="M26.5,0C11.9,0,0,11.9,0,26.5C0,41.1,11.9,53,26.5,53C41.1,53,53,41.1,53,26.5C53,11.9,41.1,0,26.5,0z
			 M41.2,5.9c0,5.4-4.4,9.8-9.8,9.8h-7.8v7.8h5.9h0h9.8c0,5.4-4.4,9.8-9.8,9.8h-5.9v5.9c0,5.4-4.4,9.8-9.8,9.8v-9.8v0V15.7h0
			c0-5.4,4.4-9.8,9.8-9.8h7.8h0L41.2,5.9C41.2,5.9,41.2,5.9,41.2,5.9z"/>
		<path class="st0" d="M82.8,25.9v-0.1c3.8-1.9,5.5-5.4,5.5-9c0-5-3.8-10.9-14.5-10.9c-8.9,0-15,4.8-15,12c0,3.7,1.4,7,5.2,9.1
			l0.1,0.1c-4.4,1.9-7.2,5.2-7.2,10.2c0,5.4,4.7,11.7,16.3,11.7c10.5,0,17-5.2,17-12.9C90.2,30.6,86.4,27.3,82.8,25.9z M73.4,13.7
			c3,0,4.1,2.1,4.1,4.4c0,2.1-1.3,4.2-2.9,4.6c-2.8-0.9-5.9-2.8-5.9-5C68.7,15.5,70.6,13.7,73.4,13.7z M73.7,41.2c-2.9,0-5-2.4-5-5
			c0-2.6,1.4-5.1,3.9-5.7c3,0.8,5.9,3.4,5.9,6.4C78.5,39.3,76.4,41.2,73.7,41.2z"/>
		<path class="st0" d="M120,25.9v-0.1c3.8-1.9,5.5-5.4,5.5-9c0-5-3.8-10.9-14.5-10.9c-8.9,0-15,4.8-15,12c0,3.7,1.4,7,5.2,9.1
			l0.1,0.1c-4.4,1.9-7.2,5.2-7.2,10.2c0,5.4,4.7,11.7,16.3,11.7c10.5,0,17-5.2,17-12.9C127.5,30.6,123.6,27.3,120,25.9z M110.6,13.7
			c3,0,4.1,2.1,4.1,4.4c0,2.1-1.3,4.2-2.9,4.6c-2.8-0.9-5.9-2.8-5.9-5C105.9,15.5,107.8,13.7,110.6,13.7z M110.9,41.2
			c-2.9,0-5-2.4-5-5c0-2.6,1.4-5.1,3.9-5.7c3,0.8,5.9,3.4,5.9,6.4C115.7,39.3,113.7,41.2,110.9,41.2z"/>
	</g>
</g>
</svg>
